<?xml version="1.0" encoding="utf-8"?>
<!-- Generator: Adobe Illustrator 23.0.3, SVG Export Plug-In . SVG Version: 6.00 Build 0)  -->
<svg version="1.1" id="圖層_1" xmlns="http://www.w3.org/2000/svg" xmlns:xlink="http://www.w3.org/1999/xlink" x="0px" y="0px"
	 viewBox="0 0 100 100" style="enable-background:new 0 0 100 100;" xml:space="preserve">
<style type="text/css">
	.st0{fill:#ff7e00;}
	.st1{fill:#FFFFFF;stroke:#231815;stroke-width:9;stroke-miterlimit:10;}
	.st2{fill:#231815;stroke:#231815;stroke-width:7;stroke-linecap:round;stroke-linejoin:round;stroke-miterlimit:10;}
	.st3{fill:none;stroke:#231815;stroke-width:7;stroke-linecap:round;stroke-linejoin:round;stroke-miterlimit:10;}
	.st4{fill:none;stroke:#231815;stroke-width:8;stroke-linecap:round;stroke-linejoin:round;stroke-miterlimit:10;}
</style>
<g>
	<path class="st0" d="M25,16.3C11.2,16.3,0,31.4,0,50s11.2,33.7,25,33.7S50,68.6,50,50S38.8,16.3,25,16.3z M25,75.9
		C15.1,75.9,7,64.3,7,50s8.1-25.9,18-25.9c6.9,0,13,5.7,16,14c-2.2-2.8-5.1-4.5-8.3-4.5c-6.6,0-12,7.3-12,16.4
		c0,9.1,5.4,16.4,12,16.4c3.2,0,6.1-1.7,8.3-4.5C38,70.2,31.9,75.9,25,75.9z"/>
	<path class="st0" d="M75,16.3c-13.8,0-25,15.1-25,33.7s11.2,33.7,25,33.7c13.8,0,25-15.1,25-33.7S88.8,16.3,75,16.3z M75,75.9
		c-9.9,0-18-11.6-18-25.9s8.1-25.9,18-25.9c6.9,0,13,5.7,16,14c-2.2-2.8-5.1-4.5-8.3-4.5c-6.6,0-12,7.3-12,16.4
		c0,9.1,5.4,16.4,12,16.4c3.2,0,6.1-1.7,8.3-4.5C88,70.2,81.9,75.9,75,75.9z"/>
</g>
</svg>
