<?xml version="1.0" encoding="utf-8"?>
<!-- Generator: Adobe Illustrator 23.0.3, SVG Export Plug-In . SVG Version: 6.00 Build 0)  -->
<svg version="1.1" id="圖層_1" xmlns="http://www.w3.org/2000/svg" xmlns:xlink="http://www.w3.org/1999/xlink" x="0px" y="0px"
	 viewBox="0 0 100 100" style="enable-background:new 0 0 100 100;" xml:space="preserve">
<style type="text/css">
	.st0{fill:#205375;}
	.st1{fill:#FFFFFF;stroke:#231815;stroke-width:9;stroke-miterlimit:10;}
	.st2{fill:#231815;stroke:#231815;stroke-width:7;stroke-linecap:round;stroke-linejoin:round;stroke-miterlimit:10;}
	.st3{fill:none;stroke:#231815;stroke-width:7;stroke-linecap:round;stroke-linejoin:round;stroke-miterlimit:10;}
	.st4{fill:none;stroke:#231815;stroke-width:8;stroke-linecap:round;stroke-linejoin:round;stroke-miterlimit:10;}
</style>
<g>
	<g>
		<path class="st0" d="M65.8,49.7L47.7,31.5c-0.4-0.4-1-0.4-1.4,0l-2.5,2.5c0,0-0.1,0.1-0.1,0.1c0,0,0,0,0,0c0,0.1-0.1,0.1-0.1,0.2
			c0,0,0,0,0,0l-6.4,17.4L35,54c-0.5,0.5-3.8,3.3-3.8,6c0,3.6,2.9,6.5,6.5,6.5c2,0,3.9-0.9,5.1-2.5l3.9,3.9c0.1,0.1,0.1,0.1,0.2,0.2
			c0.9,0.5,1.6,0.6,2.2,0.6c1.2,0,1.9-0.6,2.1-0.8l0,0l1.2-1.1c0.2-0.2,0.3-0.4,0.3-0.7c0-0.3-0.1-0.5-0.3-0.7L46.9,60l16-5.7
			c0.2-0.1,0.3-0.2,0.4-0.3l0.2-0.3c0,0,0,0,0,0l2.3-2.7C66.2,50.6,66.2,50,65.8,49.7z M47,33.7l16.8,16.8l-1,1.2L45.8,34.8L47,33.7
			z"/>
		<g>
			<path class="st0" d="M63.8,42.3C63.8,42.3,63.8,42.3,63.8,42.3c-0.6,0-1-0.5-1-1l0,0c0,0,0-0.1,0-0.1c0-3.1-2.5-5.6-5.6-5.6
				c-0.3,0-0.6,0-0.9,0.1c-0.5,0.1-1.1-0.3-1.1-0.8s0.3-1.1,0.8-1.1c0.4-0.1,0.8-0.1,1.2-0.1c4.2,0,7.6,3.4,7.6,7.6
				c0,0.1,0,0.1,0,0.2l0,0C64.8,41.9,64.4,42.3,63.8,42.3z"/>
		</g>
		<g>
			<path class="st0" d="M67.9,42c-0.5,0-1-0.4-1-1c0-5.3-4.3-9.6-9.6-9.6c-0.4,0-0.8,0-1.2,0.1c-0.5,0.1-1-0.3-1.1-0.9
				c-0.1-0.5,0.3-1,0.9-1.1c0.5-0.1,1-0.1,1.4-0.1c6.4,0,11.6,5.2,11.6,11.5C68.9,41.6,68.4,42,67.9,42C67.9,42,67.9,42,67.9,42z"/>
		</g>
	</g>
	<g>
		<path class="st0" d="M22.5,98.4c-0.7,0-1.4-0.3-1.9-0.9c-0.6-0.7-0.8-1.7-0.5-2.6l4-10.1C9.4,77.1,0.4,63.6,0.4,49
			C0.4,26,22.7,7.2,50,7.2S99.6,26,99.6,49S77.3,90.9,50,90.9c-3.8,0-7.6-0.4-11.3-1.1c-1,1.2-2.7,2.8-5.4,4.4
			c-4.5,2.6-10,4-10.2,4.1C22.9,98.3,22.7,98.4,22.5,98.4z M50,12.4C25.5,12.4,5.6,28.8,5.6,49c0,13.3,8.8,25.6,22.9,32.1
			c1.2,0.6,1.8,2,1.3,3.3l-2.9,7.3c1.3-0.5,2.6-1.1,3.8-1.9c3.4-2,4.7-4.1,4.7-4.1c0.5-1,1.7-1.5,2.8-1.3C42,85.3,46,85.7,50,85.7
			c24.5,0,44.4-16.5,44.4-36.7S74.5,12.4,50,12.4z"/>
	</g>
</g>
</svg>
