<svg xmlns="http://www.w3.org/2000/svg" viewBox="0 0 293.32 53.44"><defs><style>.cls-1{fill:#FF4C30;}</style></defs><title>logo_2</title><g id="圖層_2" data-name="圖層 2"><g id="圖層_1-2" data-name="圖層 1"><path d="M100.37,28.83q-2,6.21-3.94,11.49t-4,10.28H88a154.93,154.93,0,0,1-4.33-15q-1.87-7.87-3.5-17.14h4.72q.66,3.6,1.35,7.22t1.44,7q.74,3.4,1.48,6.51T90.64,45q1.85-4.87,3.93-10.68t3.9-12h3.89q1.8,6.19,3.93,12c1.43,3.87,2.75,7.43,4,10.68.49-1.73,1-3.63,1.48-5.7s1-4.24,1.46-6.51,1-4.62,1.41-7,.91-4.85,1.35-7.25h4.58Q118.9,27.76,117,35.64t-4.28,15h-4.5q-2-5-4-10.28T100.37,28.83Z"/><path d="M144.66,38.56a15.19,15.19,0,0,1-.84,5.19,11.67,11.67,0,0,1-2.34,4,10.25,10.25,0,0,1-3.59,2.57,11.9,11.9,0,0,1-9.08,0,10.25,10.25,0,0,1-3.59-2.57,12,12,0,0,1-2.34-4,16.58,16.58,0,0,1,0-10.36,12,12,0,0,1,2.34-4,10.25,10.25,0,0,1,3.59-2.57,11.9,11.9,0,0,1,9.08,0,10.25,10.25,0,0,1,3.59,2.57,11.72,11.72,0,0,1,2.34,4A15.2,15.2,0,0,1,144.66,38.56Zm-4.5,0a10.4,10.4,0,0,0-1.83-6.47,6.4,6.4,0,0,0-10,0,10.4,10.4,0,0,0-1.83,6.47A10.37,10.37,0,0,0,128.37,45a6.38,6.38,0,0,0,10,0A10.37,10.37,0,0,0,140.16,38.56Z"/><path d="M158.46,26a12.43,12.43,0,0,1,1.28.07c.47.05.95.11,1.41.19s.89.15,1.27.23a5.37,5.37,0,0,1,.86.21l-.74,3.75a15.08,15.08,0,0,0-1.69-.44,14.81,14.81,0,0,0-3-.26,11.19,11.19,0,0,0-2.38.26c-.79.17-1.31.28-1.55.35V50.6h-4.31V27.53a28.51,28.51,0,0,1,3.8-1A24,24,0,0,1,158.46,26Z"/><path d="M175,37.35A27.9,27.9,0,0,1,177.94,40q1.56,1.57,3.06,3.41t2.85,3.7c.89,1.25,1.65,2.42,2.27,3.5h-5.05a38.88,38.88,0,0,0-2.25-3.31c-.85-1.13-1.74-2.21-2.66-3.24a36.32,36.32,0,0,0-2.83-2.85A25,25,0,0,0,170.6,39V50.6h-4.31V15.39l4.31-.74v22l2.45-2.46c.9-.89,1.78-1.8,2.65-2.73s1.68-1.81,2.45-2.66,1.44-1.6,2-2.25h5.05q-1.06,1.15-2.31,2.55c-.84.93-1.7,1.86-2.6,2.8s-1.8,1.89-2.71,2.83Z"/><path d="M209,50.6q-1.31-3.33-2.76-7.62t-2.67-8.92q-1.2,4.63-2.64,8.92t-2.73,7.62h-3.75q-2.13-4.77-4.17-10.89t-3.85-13.2h4.64c.3,1.45.67,3,1.11,4.73s.89,3.39,1.36,5.09,1,3.34,1.51,4.91,1,2.95,1.48,4.13c.53-1.45,1-3,1.55-4.61s1-3.26,1.46-4.91.91-3.28,1.33-4.87.77-3.08,1.08-4.47h3.57q.42,2.08,1,4.47t1.3,4.87q.69,2.48,1.46,4.91c.51,1.62,1,3.16,1.55,4.61.46-1.18.95-2.55,1.46-4.13s1-3.21,1.5-4.91,1-3.39,1.39-5.09.81-3.28,1.12-4.73h4.44q-1.8,7.09-3.84,13.2T212.76,50.6Z"/><path d="M222.81,38.6a15.31,15.31,0,0,1,.93-5.58,11.68,11.68,0,0,1,2.45-4,10,10,0,0,1,3.52-2.36,10.93,10.93,0,0,1,4.08-.79q4.86,0,7.46,3t2.59,9.25v.71a6.65,6.65,0,0,1,0,.81H227.3a8.85,8.85,0,0,0,2.18,5.7q1.91,2,5.93,2a15.86,15.86,0,0,0,3.82-.39,13.79,13.79,0,0,0,2.34-.77l.61,3.61a12.4,12.4,0,0,1-2.76.88,19.47,19.47,0,0,1-4.47.47,14.19,14.19,0,0,1-5.44-.95,10.17,10.17,0,0,1-3.78-2.62,10.65,10.65,0,0,1-2.2-4A16.7,16.7,0,0,1,222.81,38.6Zm16.54-2.36a7.28,7.28,0,0,0-1.46-4.8,5,5,0,0,0-4.14-1.87,5.62,5.62,0,0,0-2.62.58,6.23,6.23,0,0,0-1.93,1.5A7,7,0,0,0,228,33.78a10.23,10.23,0,0,0-.58,2.46Z"/><path d="M247.55,38.6a15.31,15.31,0,0,1,.93-5.58,11.52,11.52,0,0,1,2.45-4,10,10,0,0,1,3.52-2.36,10.93,10.93,0,0,1,4.08-.79q4.86,0,7.46,3t2.59,9.25v.71a6.65,6.65,0,0,1,0,.81H252a8.85,8.85,0,0,0,2.18,5.7c1.27,1.3,3.24,2,5.93,2A15.86,15.86,0,0,0,264,47a13.79,13.79,0,0,0,2.34-.77l.61,3.61a12.4,12.4,0,0,1-2.76.88,19.47,19.47,0,0,1-4.47.47,14.19,14.19,0,0,1-5.44-.95,10.17,10.17,0,0,1-3.78-2.62,10.65,10.65,0,0,1-2.2-4A16.7,16.7,0,0,1,247.55,38.6Zm16.54-2.36a7.28,7.28,0,0,0-1.46-4.8,5,5,0,0,0-4.15-1.87,5.61,5.61,0,0,0-2.61.58,6.23,6.23,0,0,0-1.93,1.5,7,7,0,0,0-1.22,2.13,10.23,10.23,0,0,0-.58,2.46Z"/><path d="M272.29,38.6a15.31,15.31,0,0,1,.93-5.58,11.52,11.52,0,0,1,2.45-4,9.88,9.88,0,0,1,3.52-2.36,10.93,10.93,0,0,1,4.08-.79q4.86,0,7.46,3t2.59,9.25v.71a6.65,6.65,0,0,1,0,.81h-16.5a8.8,8.8,0,0,0,2.18,5.7c1.27,1.3,3.24,2,5.93,2a15.92,15.92,0,0,0,3.82-.39,13.79,13.79,0,0,0,2.34-.77l.61,3.61a12.4,12.4,0,0,1-2.76.88,19.54,19.54,0,0,1-4.47.47,14.28,14.28,0,0,1-5.45-.95,10.21,10.21,0,0,1-3.77-2.62,10.65,10.65,0,0,1-2.2-4A16.7,16.7,0,0,1,272.29,38.6Zm16.54-2.36a7.28,7.28,0,0,0-1.46-4.8,5,5,0,0,0-4.15-1.87,5.58,5.58,0,0,0-2.61.58,6.23,6.23,0,0,0-1.93,1.5,7,7,0,0,0-1.22,2.13,10.23,10.23,0,0,0-.58,2.46Z"/><path class="cls-1" d="M42.78,52.56q-9.27-3.15-11.18-13a5.07,5.07,0,0,1,1.67-4.89,4.72,4.72,0,0,1,4.9-.58,4.55,4.55,0,0,1,2.73,4.12A5.32,5.32,0,0,0,43,42.09a13.41,13.41,0,0,0,2.92,1.37c2.92,1,5.16.88,6.7-.35a8.41,8.41,0,0,1,.8-.67,12.24,12.24,0,0,0,2.33-3.53l6.6-19.38a4.62,4.62,0,0,1,3.34-3.19,4.39,4.39,0,0,1,4.55,1.55,4.5,4.5,0,0,1,.87,4.62l-6.6,19.38q-4.8,11.34-15.39,11.5A15.25,15.25,0,0,1,42.78,52.56Z"/><path class="cls-1" d="M23.3,53.42q-10.59.18-15.75-11L.34,23.26a4.53,4.53,0,0,1,.72-4.65,4.43,4.43,0,0,1,4.5-1.7A4.65,4.65,0,0,1,9,20l7.21,19.17a12.08,12.08,0,0,0,2.44,3.45,7.79,7.79,0,0,1,.81.65c1.59,1.18,3.83,1.22,6.71.14a13.37,13.37,0,0,0,2.88-1.47A5.28,5.28,0,0,0,31,38a4.56,4.56,0,0,1,2.6-4.21,4.72,4.72,0,0,1,4.92.43A5,5,0,0,1,40.33,39Q38.74,49,29.57,52.39A15.26,15.26,0,0,1,23.3,53.42Z"/><path class="cls-1" d="M39.35,37.81A15.56,15.56,0,0,0,51.7,21.12a1.56,1.56,0,0,0-1.88-1.35L22.59,25.39a1.55,1.55,0,0,0-1.18,2A15.53,15.53,0,0,0,39.35,37.81Z"/><ellipse class="cls-1" cx="44.3" cy="9.69" rx="4.8" ry="5.85" transform="translate(-1.04 10.41) rotate(-13.24)"/><path class="cls-1" d="M42.91,17.4c-3.47,0-6.77-2.87-7.75-7A9.67,9.67,0,0,1,35.79,4,6.59,6.59,0,0,1,46.06,1.53,9.66,9.66,0,0,1,49.5,7c1.11,4.71-1.21,9.3-5.16,10.23A6.4,6.4,0,0,1,42.91,17.4ZM41.77,2a4.19,4.19,0,0,0-1,.12,4.82,4.82,0,0,0-3.19,2.71,7.67,7.67,0,0,0-.48,5.1c.85,3.63,3.89,6,6.77,5.36s4.53-4.19,3.67-7.82a7.64,7.64,0,0,0-2.7-4.35A5.06,5.06,0,0,0,41.77,2Z"/><ellipse class="cls-1" cx="27.45" cy="16.35" rx="4.51" ry="5.5" transform="translate(-3.02 6.72) rotate(-13.24)"/><path class="cls-1" d="M26.14,23.66c-3.29,0-6.42-2.72-7.34-6.64a9.09,9.09,0,0,1,.6-6.09,6.46,6.46,0,0,1,4.3-3.59c3.75-.88,7.65,2,8.7,6.48a9.11,9.11,0,0,1-.6,6.1,6.4,6.4,0,0,1-4.3,3.58h0A5.68,5.68,0,0,1,26.14,23.66ZM25.07,9.18a4,4,0,0,0-.91.11,4.49,4.49,0,0,0-3,2.52,7,7,0,0,0-.45,4.75c.79,3.39,3.61,5.63,6.29,5h0A4.49,4.49,0,0,0,30,19a7.05,7.05,0,0,0,.45-4.76C29.75,11.28,27.45,9.18,25.07,9.18Z"/></g></g></svg>