<?xml version="1.0" encoding="utf-8"?>
<!-- Generator: Adobe Illustrator 23.0.3, SVG Export Plug-In . SVG Version: 6.00 Build 0)  -->
<svg version="1.1" id="圖層_1" xmlns="http://www.w3.org/2000/svg" xmlns:xlink="http://www.w3.org/1999/xlink" x="0px" y="0px"
	 viewBox="0 0 283.5 70.9" style="enable-background:new 0 0 283.5 70.9;" xml:space="preserve">
<style type="text/css">
	.st0{fill:#E26A2C;}
	.st1{fill:#112B3C;}
</style>
<g>
	<path class="st0" d="M67.1,29.3c-1.1-1.3-2.5-1.8-4.3-1.5c-1.6,0.4-2.6,1.4-3.1,3L53.5,49c-0.5,1.2-1.3,2.3-2.2,3.3
		c-0.3,0.2-0.6,0.5-0.7,0.6c-1.5,1.2-3.5,1.3-6.3,0.3c-1.1-0.4-2-0.8-2.7-1.3c-1.1-0.7-1.7-1.9-1.9-3.7c0-0.2,0-0.5-0.1-0.7
		c6.6-2,10.9-8.5,10.2-15.3c-0.1-0.9-0.9-1.4-1.8-1.3l-25.6,5.3c-0.8,0.2-1.4,1-1.1,1.9c1.4,4.4,4.9,7.8,9.1,9.3
		c0,0.2-0.1,0.4-0.1,0.7c-0.2,1.7-0.8,3-1.8,3.7c-0.8,0.5-1.7,1-2.7,1.4c-2.7,1-4.8,1-6.3-0.1c-0.2-0.2-0.4-0.4-0.8-0.6
		c-1-1-1.7-2-2.3-3.2l-6.8-18c-0.6-1.6-1.7-2.5-3.2-2.9c-1.8-0.3-3.2,0.2-4.2,1.6c-1,1.3-1.3,2.8-0.7,4.4l6.8,18
		c3.2,7,8.2,10.4,14.8,10.3c1.9,0.1,3.9-0.2,5.9-1c2.4-0.9,4.4-2.2,6-3.8c1.7,1.7,3.8,3.1,6.4,4c2,0.7,4,0.9,5.9,0.8
		c6.6-0.1,11.4-3.7,14.5-10.8L68,33.6C68.5,32,68.2,30.6,67.1,29.3z"/>
	<path class="st0" d="M41.5,28.8c0.4,0,0.9-0.1,1.3-0.2c3.7-0.9,5.9-5.2,4.8-9.6c-0.5-2.1-1.6-3.9-3.2-5.1c-1.6-1.3-3.6-1.7-5.4-1.3
		c-1.8,0.4-3.3,1.7-4.3,3.5c-0.9,1.8-1.1,3.9-0.6,6.1C35.1,26.1,38.2,28.8,41.5,28.8z M36.5,17c0.7-1.3,1.7-2.2,3-2.5
		c0.3-0.1,0.6-0.1,0.9-0.1c1,0,2,0.4,2.9,1.1c0.5,0.4,0.9,0.9,1.3,1.4c-0.9-0.6-2-0.8-3.1-0.6c-2.4,0.6-3.8,3.4-3.1,6.4
		c0.5,2.2,2,3.8,3.7,4.3c-2.6,0.4-5.3-1.8-6.1-5.1C35.7,20.1,35.8,18.4,36.5,17z"/>
	<path class="st0" d="M25.8,34.7c0.4,0,0.9,0,1.3-0.1h0c1.7-0.4,3.2-1.6,4-3.4c0.8-1.7,1-3.7,0.6-5.7c-1-4.2-4.6-6.9-8.2-6.1
		c-1.7,0.4-3.2,1.6-4,3.4c-0.8,1.7-1,3.7-0.6,5.7C19.7,32.1,22.7,34.7,25.8,34.7z M21.1,23.6c0.6-1.2,1.6-2.1,2.8-2.4
		c0.3-0.1,0.6-0.1,0.9-0.1c1.4,0,2.9,0.8,3.8,2.2c-0.9-0.5-1.8-0.7-2.8-0.5c-2.3,0.5-3.6,3.2-2.9,6c0.5,2,1.8,3.5,3.4,4
		c-2.4,0.3-4.8-1.7-5.6-4.7C20.3,26.4,20.5,24.9,21.1,23.6z"/>
	<path class="st1" d="M104.2,30.8c-1-0.8-2.1-0.9-3.2-0.2c-1.2,0.6-1.8,1.7-1.9,3.5l-1.9,13.7c0,0.1-0.1,0.2-0.2,0.3
		c-0.5,1.7-1.4,2.6-2.6,2.7c-2.3,0.1-3.6-0.4-3.8-1.3c-0.2-0.4-0.2-0.9-0.2-1.5l0.4-3.6c0.3-1.6,0.1-2.8-0.6-3.3
		c-0.7-0.6-1.5-0.8-2.5-0.6c-1.2,0.4-2.1,1.1-2.4,2.1l0,0.2l-0.8,5c0,0.1-0.1,0.1-0.1,0.2c-0.5,1.7-1.4,2.6-2.6,2.7
		c-2.3,0.2-3.5-0.2-3.8-1.3c-0.2-0.4-0.2-0.9-0.2-1.5l0.4-3.6l1.6-11.5c0.1-0.4,0-0.9-0.2-1.2c-0.4-1-1.2-1.5-2.4-1.5
		c-0.6-0.1-1.2,0.1-1.7,0.4c-1.1,0.7-1.7,1.7-1.7,3l-2,14.5c-0.1,0.5-0.1,1,0,1.6c0.2,2.7,1.4,4.6,3.5,5.8c1,0.6,2.1,1,3.3,1.1
		c2.9,0.4,5.6-0.4,8-2.3c1.5,1.6,3.5,2.4,6,2.5c3.1,0,5.6-1.1,7.7-3.2c1.8-1.9,2.9-4.4,3.2-7.6l1.9-13.2
		C105.2,32,104.8,31.3,104.2,30.8z"/>
	<path class="st1" d="M124.8,32c-1.6-1.2-3.6-1.8-6-1.8c-2.2,0-4.3,0.6-6.3,1.9c-3.7,2.2-5.9,6-6.6,11.3c-0.8,5,0.1,8.7,2.6,11.1
		c1.8,1.5,4,2.2,6.6,2.2c2.3,0,4.5-0.6,6.5-1.8c3.7-2.2,5.9-6.1,6.6-11.5C129,38.3,127.8,34.5,124.8,32z M122.4,43.4
		c-0.7,5-2.9,7.5-6.5,7.5c-0.5,0-0.9-0.1-1.3-0.1c2.1-0.5,3.6-2.3,3.6-4.6c0-2.6-2.1-4.7-4.7-4.7c-0.5,0-1,0.1-1.4,0.2
		c0.6-2.3,1.6-3.8,3-4.7c1-0.6,1.9-0.9,2.9-0.9C121.6,36.1,123.1,38.5,122.4,43.4z"/>
	<path class="st1" d="M144.2,30.1c-1.4,0-2.8,0.3-4,0.8c-4.4,1.5-7.1,4.8-8.2,9.9l-1.8,12.8c-0.2,1.1,0.2,2,1.1,2.6
		c0.9,0.6,1.9,0.6,3,0c1-0.6,1.5-1.5,1.7-2.6l1.8-12.8c0.2-0.9,0.5-1.7,1-2.6c0.2-0.2,0.3-0.4,0.4-0.6c0.8-1,2.2-1.6,4.1-1.6
		c0.7,0,1.4,0.1,2,0.2c0.8,0.2,1.4,0.9,1.7,1.9c0.3,1.1,1,1.7,2.2,1.9c1.2,0.1,2.2-0.4,3-1.3c0.7-1,0.9-2.1,0.5-3.2
		C151.2,31.9,148.3,30.1,144.2,30.1z"/>
	<path class="st1" d="M176.4,29.8c-0.3-0.3-0.5-0.5-0.8-0.7c-1.2-0.5-2.3-0.3-3.4,0.6l-10.8,9l2.3-16.4c0.1-0.8-0.1-1.5-0.6-2.1
		c-0.5-0.6-1.2-0.9-2-0.9c-0.4,0-0.9,0.1-1.3,0.3c-1.2,0.5-1.9,1.4-2.1,2.7l-4.4,31.4c-0.2,1.1,0.2,2,1.1,2.6c0.9,0.6,1.9,0.6,3,0
		c1.1-0.6,1.7-1.5,1.8-2.6l1-6.8l2.7-2.2l6.4,10.8c0.2,0.3,0.4,0.5,0.7,0.7c1.1,0.7,2.2,0.7,3.4-0.1c0.3-0.2,0.6-0.5,0.9-0.8
		c0.9-1.1,1-2.2,0.4-3.3l-6.8-11.4l7.8-6.5c0.3-0.3,0.5-0.6,0.8-1C177.2,31.8,177.1,30.7,176.4,29.8z"/>
	<path class="st1" d="M209.6,30.8c-1-0.8-2.1-0.9-3.2-0.2c-1.2,0.6-1.8,1.7-1.9,3.5l-1.9,13.7c0,0.1-0.1,0.2-0.2,0.3
		c-0.5,1.7-1.4,2.6-2.6,2.7c-2.3,0.1-3.6-0.4-3.8-1.3c-0.2-0.4-0.2-0.9-0.2-1.5l0.4-3.6c0.3-1.6,0.1-2.8-0.6-3.3
		c-0.7-0.6-1.5-0.8-2.5-0.6c-1.2,0.4-2.1,1.1-2.4,2.1l0,0.2l-0.8,5c0,0.1-0.1,0.1-0.1,0.2c-0.5,1.7-1.4,2.6-2.6,2.7
		c-2.3,0.2-3.5-0.2-3.8-1.3c-0.2-0.4-0.2-0.9-0.2-1.5l0.4-3.6l1.6-11.5c0.1-0.4,0-0.9-0.2-1.2c-0.4-1-1.2-1.5-2.4-1.5
		c-0.6-0.1-1.2,0.1-1.7,0.4c-1.1,0.7-1.7,1.7-1.7,3l-2,14.5c-0.1,0.5-0.1,1,0,1.6c0.2,2.7,1.4,4.6,3.5,5.8c1,0.6,2.1,1,3.3,1.1
		c2.9,0.4,5.6-0.4,8-2.3c1.5,1.6,3.5,2.4,6,2.5c3.1,0,5.6-1.1,7.7-3.2c1.8-1.9,2.9-4.4,3.2-7.6l1.9-13.2
		C210.6,32,210.2,31.3,209.6,30.8z"/>
	<path class="st1" d="M229.2,31c-1.2-0.7-2.7-1.1-4.4-1.1c-2.3,0-4.4,0.6-6.4,1.9c-3.6,2.2-5.8,5.8-6.8,10.8
		c-0.1,0.4-0.2,0.9-0.2,1.2c-0.5,4.8,0.8,8.4,3.7,10.8c1.6,1.3,3.3,1.9,5.2,1.9c2.6,0.1,4.5,0,5.6-0.2c1.6-0.4,3-1,4.2-1.9
		c1.1-0.7,1.6-1.6,1.5-2.7c0-1.2-0.4-2-1.3-2.5c-1.1-0.4-2.1-0.2-3.1,0.6c-0.7,0.4-2.4,0.7-5,0.7h-1c-2.4-0.4-3.7-1.8-3.9-4.4h12.2
		c1.3,0,2.3-0.6,2.9-1.8c0.2-0.4,0.3-0.7,0.4-1.1l0.2-1.1C233.8,36.9,232.5,33.2,229.2,31z M227.4,40.3h-9.2
		c0.5-1.6,1.4-2.9,2.8-3.7c0.9-0.4,1.7-0.7,2.3-0.7h0.3h0.2c0.7,0,1.4,0.1,1.8,0.4c1.1,0.6,1.7,1.8,1.7,3.7L227.4,40.3z"/>
	<path class="st1" d="M254.1,31c-1.2-0.7-2.7-1.1-4.4-1.1c-2.3,0-4.4,0.6-6.4,1.9c-3.6,2.2-5.8,5.8-6.8,10.8
		c-0.1,0.4-0.2,0.9-0.2,1.2c-0.5,4.8,0.8,8.4,3.7,10.8c1.6,1.3,3.3,1.9,5.2,1.9c2.6,0.1,4.5,0,5.6-0.2c1.6-0.4,3-1,4.2-1.9
		c1.1-0.7,1.6-1.6,1.5-2.7c0-1.2-0.4-2-1.3-2.5c-1.1-0.4-2.1-0.2-3.1,0.6c-0.7,0.4-2.4,0.7-5,0.7h-1c-2.4-0.4-3.7-1.8-3.9-4.4h12.2
		c1.3,0,2.3-0.6,2.9-1.8c0.2-0.4,0.3-0.7,0.4-1.1l0.2-1.1C258.6,36.9,257.3,33.2,254.1,31z M252.2,40.3h-9.2
		c0.5-1.6,1.4-2.9,2.8-3.7c0.9-0.4,1.7-0.7,2.3-0.7h0.3h0.2c0.7,0,1.4,0.1,1.8,0.4c1.1,0.6,1.7,1.8,1.7,3.7L252.2,40.3z"/>
	<path class="st1" d="M278.9,31c-1.2-0.7-2.7-1.1-4.4-1.1c-2.3,0-4.4,0.6-6.4,1.9c-3.6,2.2-5.8,5.8-6.8,10.8
		c-0.1,0.4-0.2,0.9-0.2,1.2c-0.5,4.8,0.8,8.4,3.7,10.8c1.6,1.3,3.3,1.9,5.2,1.9c2.6,0.1,4.5,0,5.6-0.2c1.6-0.4,3-1,4.2-1.9
		c1.1-0.7,1.6-1.6,1.5-2.7c0-1.2-0.4-2-1.3-2.5c-1.1-0.4-2.1-0.2-3.1,0.6c-0.7,0.4-2.4,0.7-5,0.7h-1c-2.4-0.4-3.7-1.8-3.9-4.4h12.2
		c1.3,0,2.3-0.6,2.9-1.8c0.2-0.4,0.3-0.7,0.4-1.1l0.2-1.1C283.4,36.9,282.2,33.2,278.9,31z M277.1,40.3h-9.2
		c0.5-1.6,1.4-2.9,2.8-3.7c0.9-0.4,1.7-0.7,2.3-0.7h0.3h0.2c0.7,0,1.4,0.1,1.8,0.4c1.1,0.6,1.7,1.8,1.7,3.7L277.1,40.3z"/>
</g>
</svg>
