<?xml version="1.0" encoding="utf-8"?>
<!-- Generator: Adobe Illustrator 23.0.3, SVG Export Plug-In . SVG Version: 6.00 Build 0)  -->
<svg version="1.1" id="圖層_1" xmlns="http://www.w3.org/2000/svg" xmlns:xlink="http://www.w3.org/1999/xlink" x="0px" y="0px"
	 viewBox="0 0 800 600" style="enable-background:new 0 0 800 600;" xml:space="preserve">
<style type="text/css">
	.st0{fill:#E60012;}
	.st1{fill:none;}
	.st2{fill:#231815;}
	.st3{fill:#FFFFFF;}
	.st4{fill:none;stroke:#231815;stroke-miterlimit:10;}
	.st5{fill:#E26A2C;}
	.st6{fill:#112B3C;}
	.st7{fill:#205375;}
	.st8{fill:#FF4C30;}
	.st9{fill:#FFEBD4;}
	.st10{fill:#0051E0;}
	.st11{fill:#EFEFEF;}
	.st12{fill:#1E5171;}
</style>
<rect x="-0.1" y="0.6" class="st6" width="798.4" height="598.8"/>
<g>
	<path class="st7" d="M432.5,377.5c-29.1-9.9-46.7-30.4-52.7-61.4c-1.5-9.4,1.1-17.1,7.8-23c7.1-5.3,14.8-6.2,23.1-2.8
		c8.1,3.9,12.4,10.4,12.9,19.4c1.2,8.7,4.4,14.8,9.7,18.4c3.9,2.5,8.5,4.7,13.8,6.5c13.8,4.7,24.3,4.1,31.6-1.7
		c0.9-0.9,2.1-1.9,3.7-3.2c4.6-4.9,8.3-10.5,11-16.6l31.1-91.3c2.7-7.9,8-13,15.8-15c8.9-1.7,16,0.7,21.4,7.3
		c5.4,6.6,6.8,13.8,4.1,21.8l-31.1,91.3c-15.1,35.6-39.3,53.7-72.5,54.2C452.5,382.2,442.6,380.9,432.5,377.5z"/>
	<path class="st7" d="M340.7,381.6c-33.3,0.6-58-16.7-74.2-51.9l-34-90.3c-3-7.9-1.8-15.2,3.4-21.9c5.2-6.7,12.3-9.4,21.2-8
		c7.9,1.8,13.3,6.7,16.2,14.5l34,90.3c2.9,6.1,6.7,11.5,11.5,16.3c1.6,1.2,2.9,2.2,3.8,3c7.5,5.6,18,5.8,31.6,0.6
		c5.2-2,9.7-4.3,13.5-6.9c5.2-3.7,8.2-10,9.1-18.7c0.2-9,4.3-15.7,12.3-19.8c8.2-3.7,15.9-3,23.2,2c6.9,5.8,9.8,13.3,8.6,22.8
		c-5,31.2-21.9,52.2-50.7,63C360.3,380.5,350.5,382.1,340.7,381.6z"/>
	<path class="st7" d="M416.4,308c37-7.6,61.7-41.9,58.2-78.7c-0.4-4.3-4.6-7.3-8.9-6.4l-128.3,26.5c-4.2,0.9-6.9,5.2-5.6,9.4
		C343.1,294,379.4,315.6,416.4,308z"/>
	<path class="st7" d="M446,202.3c-12.2,2.9-24.8-6.8-28.3-21.7c-3.5-14.8,3.5-29.2,15.7-32c12.2-2.9,24.8,6.8,28.3,21.7
		C465.2,185.1,458.2,199.5,446,202.3z"/>
	<g>
		<path class="st7" d="M433.1,211.8c-16.4,0-31.9-13.5-36.5-33c-2.5-10.6-1.4-21.4,3-30.4c4.6-9.3,12.1-15.6,21.3-17.8
			c9.2-2.2,18.8,0.1,27,6.4c8,6.1,13.7,15.3,16.2,25.8c5.2,22.2-5.7,43.8-24.3,48.2C437.6,211.6,435.4,211.8,433.1,211.8z
			 M427.7,139.2c-1.6,0-3.1,0.2-4.6,0.5c-6.4,1.5-11.7,6-15,12.8c-3.5,7.1-4.3,15.6-2.3,24.1c4,17.1,18.3,28.4,31.9,25.2
			c13.6-3.2,21.3-19.7,17.3-36.8c-2-8.5-6.5-15.7-12.8-20.5C437.7,141,432.7,139.2,427.7,139.2z"/>
	</g>
	
		<ellipse transform="matrix(0.9734 -0.2291 0.2291 0.9734 -37.8085 88.0315)" class="st7" cx="360.3" cy="206.9" rx="21.3" ry="25.9"/>
	<g>
		<path class="st7" d="M354.1,241.3c-15.5,0-30.2-12.8-34.6-31.3c-2.4-10-1.4-20.2,2.8-28.7c4.3-8.8,11.5-14.8,20.3-16.9
			c17.7-4.2,36.1,9.5,41,30.5c2.4,10,1.4,20.2-2.8,28.7c-4.3,8.8-11.5,14.8-20.3,16.9h0C358.4,241.1,356.2,241.3,354.1,241.3z
			 M349.1,173.1c-1.4,0-2.9,0.2-4.3,0.5c-5.9,1.4-10.9,5.6-13.9,11.9c-3.2,6.6-4,14.5-2.1,22.4c3.8,15.9,17,26.5,29.7,23.5h0
			c5.9-1.4,10.9-5.6,13.9-11.9c3.2-6.6,4-14.5,2.1-22.4C371.1,183,360.3,173.1,349.1,173.1z"/>
	</g>
</g>
<g>
	<path class="st7" d="M301.7,427.2c-1.6-1-3-1.1-4.2-0.3c-1.3,0.8-1.7,2.2-1.2,4.4l2.5,17.4c0,0.1,0,0.2-0.1,0.4
		c-0.1,2.2-0.8,3.3-2.3,3.4c-2.9,0.1-4.7-0.5-5.3-1.7c-0.4-0.6-0.6-1.2-0.8-1.8l-0.8-4.5c-0.2-2.1-0.9-3.5-2-4.2
		c-1.1-0.8-2.2-1-3.4-0.7c-1.4,0.5-2.2,1.4-2.3,2.7l0,0.3l0.8,6.4c0,0.1,0,0.2-0.1,0.3c-0.1,2.2-0.8,3.3-2.3,3.4
		c-2.8,0.3-4.6-0.3-5.3-1.7c-0.4-0.6-0.6-1.2-0.8-1.8l-0.8-4.5l-2.1-14.6c-0.1-0.6-0.3-1.1-0.7-1.6c-0.9-1.3-2.1-1.9-3.5-1.8
		c-0.8-0.1-1.5,0.1-2,0.6c-1.2,0.9-1.5,2.2-1,3.8l2.7,18.4c0.1,0.7,0.3,1.3,0.6,2c1.3,3.4,3.5,5.9,6.6,7.4c1.4,0.8,3,1.2,4.6,1.4
		c3.8,0.5,7-0.5,9.3-3c2.5,2,5.3,3,8.5,3.1c3.9,0,6.7-1.4,8.6-4.1c1.6-2.4,2.1-5.6,1.3-9.6l-2.4-16.7
		C303.4,428.7,302.8,427.8,301.7,427.2z"/>
	<path class="st7" d="M328.4,428.7c-2.5-1.5-5.2-2.3-8.3-2.3c-2.8,0-5.3,0.8-7.3,2.4c-3.8,2.8-5.3,7.6-4.3,14.3
		c0.8,6.3,3.3,11,7.3,14c2.8,1.9,5.9,2.8,9.2,2.8c2.9,0,5.5-0.8,7.6-2.3c3.8-2.8,5.3-7.7,4.2-14.6
		C335.9,436.8,333.1,431.9,328.4,428.7z M329.5,443.2c0.9,6.3-0.9,9.5-5.6,9.5c-0.6,0-1.2-0.1-1.8-0.2c2.4-0.6,3.7-3,2.9-5.8
		c-0.9-3.3-4.4-6-7.7-6c-0.6,0-1.2,0.1-1.7,0.3c-0.1-2.9,0.6-4.8,2.1-5.9c1-0.8,2.1-1.1,3.4-1.1C325.9,434,328.6,437,329.5,443.2z"
		/>
	<path class="st7" d="M352.3,426.3c-1.8,0-3.4,0.3-4.8,1c-5,1.9-7.3,6.1-6.8,12.6l2.4,16.3c0.2,1.4,1,2.5,2.3,3.3
		c1.3,0.8,2.6,0.8,3.8,0c1-0.8,1.4-1.8,1.2-3.3l-2.4-16.3c-0.1-1.1,0.1-2.2,0.4-3.3c0.1-0.3,0.3-0.5,0.3-0.7c0.7-1.3,2.2-2,4.7-2
		c0.9,0,1.8,0.1,2.6,0.3c1.1,0.3,2,1.1,2.9,2.4c0.8,1.4,1.9,2.2,3.5,2.4c1.5,0.1,2.6-0.5,3.3-1.7c0.6-1.3,0.4-2.7-0.6-4.1
		C361.8,428.6,357.5,426.3,352.3,426.3z"/>
	<path class="st7" d="M393,425.9c-0.4-0.4-0.9-0.7-1.3-0.8c-1.7-0.7-3.1-0.4-4.1,0.7l-10.4,11.5l-3-20.8c-0.2-1-0.7-1.9-1.5-2.7
		c-0.9-0.8-1.8-1.1-2.9-1.1c-0.6,0-1.1,0.1-1.5,0.4c-1.3,0.7-1.9,1.8-1.6,3.4l5.8,39.8c0.2,1.4,1,2.5,2.3,3.3c1.3,0.8,2.6,0.8,3.8,0
		c1.1-0.8,1.6-1.8,1.4-3.3l-1.3-8.6l2.6-2.8l12.1,13.7c0.3,0.4,0.7,0.7,1.1,0.8c1.6,0.9,3.1,0.9,4.2-0.1c0.3-0.3,0.6-0.6,0.8-1
		c0.7-1.4,0.5-2.8-0.8-4.2l-12.7-14.5l7.6-8.2c0.2-0.4,0.4-0.8,0.7-1.3C394.8,428.5,394.3,427.1,393,425.9z"/>
	<path class="st7" d="M435.5,427.2c-1.6-1-3-1.1-4.2-0.3c-1.3,0.8-1.7,2.2-1.2,4.4l2.5,17.4c0,0.1,0,0.2-0.1,0.4
		c-0.1,2.2-0.8,3.3-2.3,3.4c-2.9,0.1-4.7-0.5-5.3-1.7c-0.4-0.6-0.6-1.2-0.8-1.8l-0.8-4.5c-0.2-2.1-0.9-3.5-2-4.2
		c-1.1-0.8-2.2-1-3.4-0.7c-1.4,0.5-2.2,1.4-2.3,2.7l0,0.3l0.8,6.4c0,0.1,0,0.2-0.1,0.3c-0.1,2.2-0.8,3.3-2.3,3.4
		c-2.8,0.3-4.6-0.3-5.3-1.7c-0.4-0.6-0.6-1.2-0.8-1.8l-0.8-4.5l-2.1-14.6c-0.1-0.6-0.3-1.1-0.7-1.6c-0.9-1.3-2.1-1.9-3.5-1.8
		c-0.8-0.1-1.4,0.1-2,0.6c-1.2,0.9-1.5,2.2-1,3.8l2.7,18.4c0.1,0.7,0.3,1.3,0.6,2c1.3,3.4,3.5,5.9,6.6,7.4c1.4,0.8,3,1.2,4.6,1.4
		c3.8,0.5,7-0.5,9.3-3c2.5,2,5.3,3,8.5,3.1c3.9,0,6.7-1.4,8.6-4.1c1.6-2.4,2.1-5.6,1.3-9.6l-2.4-16.7
		C437.2,428.7,436.5,427.8,435.5,427.2z"/>
	<path class="st7" d="M460.5,427.5c-1.8-0.9-3.8-1.4-6-1.4c-2.9,0-5.4,0.8-7.4,2.4c-3.8,2.7-5.3,7.3-4.6,13.7c0,0.6,0.1,1.1,0.2,1.6
		c1.2,6.1,4.1,10.7,8.7,13.7c2.5,1.6,4.9,2.4,7.3,2.4c3.3,0.1,5.7,0,7-0.3c1.9-0.5,3.4-1.3,4.6-2.4c1.1-0.8,1.4-2,0.9-3.4
		c-0.4-1.5-1.3-2.5-2.6-3.1c-1.5-0.5-2.7-0.2-3.7,0.7c-0.8,0.6-2.8,0.8-6.1,0.8h-1.3c-3.2-0.5-5.3-2.3-6.5-5.5h15.4
		c1.7,0,2.7-0.8,3.1-2.3c0.1-0.5,0.1-0.9,0.1-1.4l-0.2-1.4C468.4,435,465.5,430.3,460.5,427.5z M461.5,439.2h-11.6
		c0.1-2.1,0.8-3.6,2.2-4.7c1-0.6,1.9-0.8,2.7-0.8h0.4h0.3c0.9,0,1.8,0.2,2.5,0.6c1.6,0.8,2.8,2.3,3.5,4.7L461.5,439.2z"/>
	<path class="st7" d="M492.1,427.5c-1.8-0.9-3.8-1.4-6-1.4c-2.9,0-5.4,0.8-7.4,2.4c-3.8,2.7-5.3,7.3-4.6,13.7c0,0.6,0.1,1.1,0.2,1.6
		c1.2,6.1,4.1,10.7,8.7,13.7c2.5,1.6,4.9,2.4,7.3,2.4c3.3,0.1,5.7,0,7-0.3c1.9-0.5,3.4-1.3,4.6-2.4c1.1-0.8,1.4-2,0.9-3.4
		c-0.4-1.5-1.3-2.5-2.6-3.1c-1.5-0.5-2.7-0.2-3.7,0.7c-0.8,0.6-2.8,0.8-6.1,0.8H489c-3.2-0.5-5.3-2.3-6.5-5.5H498
		c1.7,0,2.7-0.8,3.1-2.3c0.1-0.5,0.1-0.9,0.1-1.4l-0.2-1.4C500,435,497,430.3,492.1,427.5z M493.1,439.2h-11.6
		c0.1-2.1,0.8-3.6,2.2-4.7c1-0.6,1.9-0.8,2.7-0.8h0.4h0.3c0.9,0,1.8,0.2,2.5,0.6c1.6,0.8,2.8,2.3,3.5,4.7L493.1,439.2z"/>
	<path class="st7" d="M523.6,427.5c-1.8-0.9-3.8-1.4-6-1.4c-2.9,0-5.4,0.8-7.4,2.4c-3.8,2.7-5.3,7.3-4.6,13.7c0,0.6,0.1,1.1,0.2,1.6
		c1.2,6.1,4.1,10.7,8.7,13.7c2.5,1.6,4.9,2.4,7.3,2.4c3.3,0.1,5.7,0,7-0.3c1.9-0.5,3.4-1.3,4.6-2.4c1.1-0.8,1.4-2,0.9-3.4
		c-0.4-1.5-1.3-2.5-2.6-3.1c-1.5-0.5-2.7-0.2-3.7,0.7c-0.8,0.6-2.8,0.8-6.1,0.8h-1.3c-3.2-0.5-5.3-2.3-6.5-5.5h15.4
		c1.7,0,2.7-0.8,3.1-2.3c0.1-0.5,0.1-0.9,0.1-1.4l-0.2-1.4C531.5,435,528.5,430.3,523.6,427.5z M524.6,439.2H513
		c0.1-2.1,0.8-3.6,2.2-4.7c1-0.6,1.9-0.8,2.7-0.8h0.4h0.3c0.9,0,1.8,0.2,2.5,0.6c1.6,0.8,2.8,2.3,3.5,4.7L524.6,439.2z"/>
</g>
</svg>
