<?xml version="1.0" encoding="utf-8"?>
<!-- Generator: Adobe Illustrator 23.0.3, SVG Export Plug-In . SVG Version: 6.00 Build 0)  -->
<svg version="1.1" id="圖層_1" xmlns="http://www.w3.org/2000/svg" xmlns:xlink="http://www.w3.org/1999/xlink" x="0px" y="0px"
	 viewBox="0 0 100 100" style="enable-background:new 0 0 100 100;" xml:space="preserve">
<style type="text/css">
	.st0{fill:#205375;}
	.st1{fill:#FFFFFF;stroke:#231815;stroke-width:9;stroke-miterlimit:10;}
	.st2{fill:#231815;stroke:#231815;stroke-width:7;stroke-linecap:round;stroke-linejoin:round;stroke-miterlimit:10;}
	.st3{fill:none;stroke:#231815;stroke-width:7;stroke-linecap:round;stroke-linejoin:round;stroke-miterlimit:10;}
	.st4{fill:none;stroke:#231815;stroke-width:8;stroke-linecap:round;stroke-linejoin:round;stroke-miterlimit:10;}
</style>
<g>
	<path class="st0" d="M25.1,30C11.7,30,0.8,43.2,0.8,59.4s10.9,29.4,24.4,29.4s24.4-13.2,24.4-29.4S38.6,30,25.1,30z M25.1,81.9
		c-9.7,0-17.5-10.1-17.5-22.5s7.9-22.5,17.5-22.5c6.8,0,12.6,4.9,15.5,12.2c-2.1-2.4-4.9-3.9-8-3.9c-6.5,0-11.7,6.4-11.7,14.3
		c0,7.9,5.3,14.3,11.7,14.3c3.1,0,5.9-1.5,8-3.9C37.8,77,31.9,81.9,25.1,81.9z"/>
	<path class="st0" d="M75.6,30c-13.4,0-24.4,13.2-24.4,29.4s10.9,29.4,24.4,29.4c13.4,0,24.4-13.2,24.4-29.4S89.1,30,75.6,30z
		 M75.6,81.9c-9.7,0-17.5-10.1-17.5-22.5S66,36.9,75.6,36.9c6.8,0,12.6,4.9,15.5,12.2c-2.1-2.4-4.9-3.9-8-3.9
		c-6.5,0-11.7,6.4-11.7,14.3c0,7.9,5.3,14.3,11.7,14.3c3.1,0,5.9-1.5,8-3.9C88.3,77,82.4,81.9,75.6,81.9z"/>
	<g>
		<path class="st0" d="M11.8,27.2c5.1-2.7,10.3-5.1,15.8-7c2.6-1,5.3-1.9,8-2.7c0.4-0.1,7.4-1.7,6.6,0c-2.1,4.4,4.4,8.3,6.6,3.8
			c1.5-3.2,1.2-6.7-1.3-9.4c-2.9-3.1-7.3-3.4-11.2-2.5C26.5,11.5,16.6,16,7.9,20.7C3.6,23,7.5,29.5,11.8,27.2L11.8,27.2z"/>
	</g>
	<g>
		<path class="st0" d="M65.2,21.3c1.9-2.2,8.6-8.5,8.8-1.7c0.1,4.9,7.8,4.9,7.6,0c-0.2-5.2-2.8-9.9-8.3-10.6c-5.7-0.8-10,3-13.5,6.9
			C56.6,19.6,62,25,65.2,21.3L65.2,21.3z"/>
	</g>
</g>
</svg>
