<?xml version="1.0" encoding="utf-8"?>
<!-- Generator: Adobe Illustrator 16.0.0, SVG Export Plug-In . SVG Version: 6.00 Build 0)  -->
<!DOCTYPE svg PUBLIC "-//W3C//DTD SVG 1.1//EN" "http://www.w3.org/Graphics/SVG/1.1/DTD/svg11.dtd">
<svg version="1.1" id="圖層_1" xmlns="http://www.w3.org/2000/svg" xmlns:xlink="http://www.w3.org/1999/xlink" x="0px" y="0px"
	 width="283.465px" height="70.866px" viewBox="0 0 283.465 70.866" enable-background="new 0 0 283.465 70.866"
	 xml:space="preserve">
<g>
	<path fill="#1E5171" d="M67.169,24.809c-1.693,0.449-2.833,1.537-3.42,3.261l-6.753,19.831c-0.584,1.341-1.378,2.546-2.384,3.614
		c-0.347,0.267-0.618,0.495-0.813,0.687c-1.581,1.257-3.867,1.377-6.857,0.36c-1.148-0.392-2.145-0.859-2.987-1.403
		c-1.147-0.775-1.847-2.105-2.105-3.989c-0.014-0.269-0.047-0.524-0.092-0.772c7.191-2.222,11.847-9.222,11.134-16.696
		c-0.089-0.938-1-1.576-1.923-1.386l-27.852,5.755c-0.922,0.191-1.506,1.139-1.216,2.034c1.562,4.836,5.298,8.491,9.868,10.102
		c-0.034,0.237-0.055,0.482-0.061,0.737c-0.198,1.889-0.856,3.241-1.977,4.052c-0.825,0.57-1.806,1.069-2.94,1.497
		c-2.957,1.113-5.245,1.065-6.866-0.142c-0.2-0.184-0.478-0.404-0.833-0.659c-1.04-1.036-1.871-2.214-2.498-3.536L9.214,28.55
		c-0.642-1.704-1.816-2.756-3.523-3.151c-1.932-0.31-3.468,0.268-4.603,1.732c-1.137,1.465-1.382,3.05-0.74,4.756l7.379,19.606
		c3.52,7.628,8.89,11.381,16.111,11.26c2.117,0.11,4.255-0.24,6.417-1.053c2.625-0.988,4.789-2.371,6.502-4.137
		c1.83,1.9,4.164,3.34,7.013,4.311c2.186,0.743,4.335,1.025,6.447,0.847c7.222-0.107,12.469-4.028,15.745-11.766l6.753-19.831
		c0.586-1.725,0.291-3.301-0.892-4.73C70.644,24.967,69.091,24.438,67.169,24.809z"/>
	<path fill="#1E5171" d="M43.902,25.898c0.486,0,0.977-0.056,1.465-0.17c4.043-0.953,6.412-5.643,5.28-10.459
		c-0.541-2.294-1.79-4.287-3.519-5.609c-1.79-1.369-3.877-1.862-5.871-1.395c-1.997,0.469-3.644,1.842-4.634,3.866
		c-0.957,1.955-1.187,4.296-0.647,6.593C36.973,22.957,40.351,25.898,43.902,25.898z M38.46,13.031
		c0.716-1.46,1.875-2.446,3.265-2.773c0.332-0.078,0.669-0.116,1.008-0.116c1.077,0,2.167,0.39,3.151,1.143
		c0.541,0.415,1.003,0.936,1.415,1.505c-1.02-0.634-2.192-0.883-3.344-0.612c-2.64,0.621-4.164,3.736-3.407,6.956
		c0.556,2.365,2.191,4.125,4.066,4.649c-2.861,0.475-5.8-1.931-6.647-5.529C37.535,16.418,37.71,14.564,38.46,13.031z"/>
	<path fill="#1E5171" d="M26.749,32.303c0.462,0,0.927-0.052,1.39-0.162h0.001c1.896-0.446,3.457-1.749,4.397-3.667
		c0.906-1.851,1.123-4.066,0.612-6.239c-1.074-4.558-5.065-7.531-8.902-6.63c-1.896,0.448-3.457,1.749-4.397,3.669
		c-0.906,1.851-1.123,4.064-0.613,6.237C20.181,29.519,23.382,32.303,26.749,32.303z M21.688,20.173
		c0.664-1.359,1.74-2.272,3.028-2.576c0.311-0.072,0.624-0.108,0.935-0.108c1.573,0,3.106,0.909,4.192,2.375
		c-0.936-0.552-1.999-0.766-3.045-0.52c-2.482,0.583-3.916,3.511-3.203,6.539c0.51,2.168,1.985,3.794,3.691,4.331
		c-2.63,0.357-5.281-1.874-6.058-5.172C20.826,23.329,20.988,21.6,21.688,20.173z"/>
	<path fill="#1E5171" d="M118.69,27.833c0.147-0.838-0.022-1.535-0.509-2.091c-0.487-0.556-1.149-0.834-1.987-0.834
		c-0.838,0-1.515,0.217-2.032,0.65c-0.518,0.433-0.915,0.925-1.192,1.474c-0.278,0.549-0.603,1.307-0.975,2.275l-7.431,18.548
		l-1.642-17.356c-0.138-1.43-0.269-2.456-0.39-3.078c-0.122-0.621-0.436-1.195-0.942-1.722c-0.506-0.527-1.301-0.791-2.384-0.791
		c-1.07,0-1.959,0.253-2.669,0.759c-0.711,0.505-1.264,1.104-1.661,1.798c-0.397,0.693-0.885,1.705-1.466,3.034l-7.719,17.356
		l-0.89-18.548c-0.052-1.43-0.213-2.521-0.485-3.272c-0.272-0.751-0.993-1.127-2.164-1.127c-0.853,0-1.617,0.281-2.294,0.845
		c-0.677,0.564-1.088,1.257-1.233,2.081c-0.115,0.65-0.124,1.596-0.024,2.839l1.515,21.386c0.047,0.637,0.105,1.327,0.178,2.071
		c0.071,0.744,0.217,1.386,0.44,1.928c0.222,0.542,0.563,0.96,1.024,1.256c0.46,0.296,1.088,0.444,1.883,0.444
		c0.982,0,1.813-0.25,2.494-0.748c0.68-0.498,1.194-1.062,1.543-1.69c0.35-0.629,0.854-1.665,1.513-3.109l8.559-19.046l1.777,19.046
		c0.157,1.488,0.296,2.539,0.419,3.152c0.123,0.614,0.437,1.167,0.943,1.657c0.505,0.492,1.249,0.737,2.232,0.737
		c1.04,0,1.89-0.253,2.549-0.758c0.66-0.505,1.168-1.094,1.525-1.766c0.357-0.671,0.844-1.73,1.459-3.175l9.058-21.386
		C118.26,29.371,118.586,28.425,118.69,27.833z"/>
	<path fill="#1E5171" d="M136.56,37.041c-0.852-1.068-1.956-1.892-3.313-2.47c-1.358-0.577-2.931-0.867-4.723-0.867
		c-1.763,0-3.423,0.286-4.983,0.857c-1.559,0.57-2.945,1.383-4.157,2.438c-1.211,1.055-2.224,2.326-3.035,3.813
		s-1.375,3.128-1.69,4.919c-0.313,1.776-0.329,3.398-0.045,4.864c0.283,1.466,0.854,2.737,1.711,3.813
		c0.857,1.077,1.95,1.904,3.279,2.482c1.329,0.577,2.888,0.867,4.679,0.867c1.806,0,3.481-0.285,5.027-0.856
		c1.544-0.571,2.932-1.39,4.161-2.459c1.229-1.068,2.248-2.347,3.059-3.835c0.812-1.487,1.373-3.112,1.684-4.875
		c0.313-1.778,0.329-3.403,0.046-4.875C137.979,39.382,137.412,38.111,136.56,37.041z M132.275,45.731
		c-0.42,2.383-1.28,4.25-2.58,5.601c-1.299,1.351-2.846,2.026-4.637,2.026c-0.605,0-1.154-0.083-1.649-0.243
		c1.98-0.052,4.016-1.919,4.851-4.646c0.978-3.186-0.056-6.327-2.306-7.016c-1.729-0.531-3.67,0.543-4.922,2.512
		c0.263-0.844,0.591-1.626,1.001-2.33c0.683-1.171,1.517-2.055,2.505-2.655c0.986-0.598,2.057-0.898,3.213-0.898
		c1.791,0,3.1,0.671,3.924,2.015C132.501,41.44,132.702,43.318,132.275,45.731z"/>
	<path fill="#1E5171" d="M158.382,37.107c0.182-1.025-0.259-1.849-1.319-2.47c-1.061-0.621-2.212-0.933-3.455-0.933
		c-1.242,0-2.289,0.312-3.143,0.933c-0.854,0.622-1.742,1.539-2.663,2.751c0.169-1.212,0.094-2.129-0.23-2.751
		c-0.324-0.621-0.977-0.933-1.959-0.933c-1.921,0-3.117,1.33-3.584,3.988l-2.905,16.468c-0.208,1.185-0.092,2.079,0.35,2.687
		c0.443,0.607,1.089,0.91,1.942,0.91c0.866,0,1.634-0.3,2.303-0.899s1.109-1.499,1.32-2.698l0.871-4.941
		c0.315-1.777,0.637-3.282,0.97-4.518c0.335-1.234,0.732-2.3,1.193-3.196c0.461-0.895,1.006-1.57,1.635-2.026
		c0.63-0.455,1.378-0.682,2.244-0.682c0.635,0,1.346,0.133,2.129,0.4c0.783,0.268,1.285,0.401,1.5,0.401
		c0.579,0,1.158-0.234,1.738-0.704C157.9,38.426,158.254,37.83,158.382,37.107z"/>
	<path fill="#1E5171" d="M175.312,33.704c-0.622,0-1.177,0.16-1.666,0.478c-0.49,0.318-1.224,0.91-2.199,1.777l-7.882,6.977
		l2.529-14.345c0.213-1.213,0.106-2.13-0.317-2.752c-0.424-0.621-1.093-0.932-2.003-0.932c-0.94,0-1.722,0.344-2.349,1.029
		c-0.626,0.686-1.056,1.688-1.286,3.001L155.69,54.16c-0.209,1.185-0.106,2.079,0.308,2.687c0.413,0.607,1.074,0.91,1.983,0.91
		c0.78,0,1.523-0.307,2.231-0.921c0.707-0.614,1.163-1.491,1.364-2.632l0.829-4.703l3.74-3.033l3.711,8.58
		c0.482,1.026,0.885,1.734,1.207,2.124c0.321,0.39,0.842,0.585,1.564,0.585c0.838,0,1.561-0.271,2.17-0.813
		c0.608-0.542,0.994-1.282,1.16-2.221c0.059-0.332,0.024-0.682-0.106-1.051c-0.129-0.368-0.357-0.906-0.679-1.615l-4.388-9.534
		l3.651-2.882c1.857-1.443,2.863-2.601,3.016-3.466c0.125-0.708-0.017-1.297-0.426-1.766
		C176.62,33.939,176.048,33.704,175.312,33.704z"/>
	<path fill="#1E5171" d="M213.676,36.175c0.117-0.665-0.042-1.242-0.476-1.734c-0.433-0.491-1.003-0.737-1.712-0.737
		c-0.707,0-1.278,0.164-1.711,0.488c-0.433,0.325-0.766,0.701-0.999,1.127c-0.236,0.426-0.565,1.115-0.994,2.068l-6.231,13.218
		l-1.344-12.286c-0.146-1.228-0.274-2.091-0.389-2.589c-0.113-0.499-0.383-0.961-0.806-1.387s-1.076-0.64-1.958-0.64
		c-0.865,0-1.586,0.213-2.16,0.64c-0.573,0.426-0.992,0.875-1.256,1.344c-0.262,0.469-0.695,1.347-1.299,2.632l-5.675,12.286
		l-1.526-13.218c-0.154-1.343-0.354-2.292-0.603-2.849c-0.25-0.556-0.864-0.835-1.846-0.835c-0.738,0-1.404,0.254-1.998,0.759
		c-0.596,0.506-0.948,1.076-1.061,1.712c-0.089,0.506-0.012,1.422,0.229,2.752l2.29,14.17c0.063,0.376,0.155,0.885,0.272,1.528
		c0.117,0.644,0.286,1.199,0.508,1.668s0.536,0.832,0.946,1.084c0.41,0.252,0.941,0.379,1.591,0.379
		c1.271,0,2.231-0.408,2.881-1.225c0.65-0.815,1.333-2.025,2.048-3.628l5.306-11.528l1.348,11.528
		c0.105,1.039,0.223,1.884,0.355,2.535c0.131,0.65,0.413,1.199,0.846,1.646c0.434,0.448,1.101,0.672,1.994,0.672
		c0.867,0,1.587-0.209,2.159-0.628c0.572-0.419,1.021-0.895,1.346-1.43c0.326-0.534,0.804-1.401,1.435-2.601l7.331-14.17
		C213.182,37.7,213.569,36.781,213.676,36.175z"/>
	<path fill="#1E5171" d="M231.566,35.124c-1.482-0.975-3.379-1.462-5.69-1.462c-1.777,0-3.445,0.285-5.004,0.855
		c-1.561,0.571-2.933,1.391-4.119,2.459c-1.186,1.071-2.17,2.352-2.953,3.848c-0.783,1.495-1.328,3.116-1.638,4.864
		c-0.654,3.713-0.118,6.652,1.609,8.819c1.725,2.167,4.49,3.25,8.289,3.25c1.661,0,3.169-0.217,4.523-0.65
		c1.355-0.433,2.514-0.978,3.474-1.636c0.961-0.657,1.714-1.343,2.26-2.059c0.544-0.716,0.863-1.339,0.959-1.874
		c0.106-0.606,0.002-1.076-0.316-1.409c-0.316-0.332-0.777-0.498-1.385-0.498c-0.563,0-1.019,0.129-1.367,0.389
		c-0.86,0.694-1.557,1.244-2.091,1.647c-0.533,0.405-1.105,0.784-1.718,1.137c-0.61,0.355-1.224,0.615-1.837,0.78
		c-0.615,0.167-1.276,0.25-1.984,0.25c-1.055,0-1.974-0.26-2.755-0.78c-0.782-0.52-1.347-1.292-1.693-2.319
		c-0.347-1.025-0.407-2.21-0.186-3.553h11.571c1.546,0,2.783-0.22,3.713-0.662c0.931-0.44,1.527-1.405,1.789-2.893
		c0.282-1.604,0.148-3.178-0.401-4.723C234.065,37.359,233.048,36.099,231.566,35.124z M229.263,43.824h-10.727
		c0.554-1.994,1.395-3.5,2.521-4.519c1.125-1.019,2.424-1.526,3.898-1.526c1.545,0,2.702,0.501,3.472,1.505
		C229.196,40.289,229.475,41.802,229.263,43.824z"/>
	<path fill="#1E5171" d="M255.717,35.124c-1.482-0.975-3.379-1.462-5.691-1.462c-1.775,0-3.442,0.285-5.004,0.855
		c-1.56,0.571-2.931,1.391-4.117,2.459c-1.185,1.071-2.17,2.352-2.952,3.848c-0.783,1.495-1.33,3.116-1.638,4.864
		c-0.654,3.713-0.119,6.652,1.607,8.819c1.727,2.167,4.491,3.25,8.291,3.25c1.66,0,3.168-0.217,4.524-0.65
		c1.353-0.433,2.512-0.978,3.472-1.636c0.962-0.657,1.715-1.343,2.259-2.059c0.546-0.716,0.865-1.339,0.96-1.874
		c0.107-0.606,0.002-1.076-0.315-1.409c-0.316-0.332-0.779-0.498-1.386-0.498c-0.563,0-1.019,0.129-1.369,0.389
		c-0.858,0.694-1.553,1.244-2.088,1.647c-0.534,0.405-1.106,0.784-1.719,1.137c-0.611,0.355-1.224,0.615-1.838,0.78
		c-0.614,0.167-1.275,0.25-1.982,0.25c-1.055,0-1.975-0.26-2.756-0.78c-0.782-0.52-1.348-1.292-1.692-2.319
		c-0.348-1.025-0.409-2.21-0.187-3.553h11.57c1.546,0,2.783-0.22,3.714-0.662c0.93-0.44,1.526-1.405,1.788-2.893
		c0.283-1.604,0.148-3.178-0.402-4.723C258.216,37.359,257.199,36.099,255.717,35.124z M253.414,43.824h-10.728
		c0.556-1.994,1.396-3.5,2.521-4.519c1.126-1.019,2.426-1.526,3.899-1.526c1.546,0,2.702,0.501,3.471,1.505
		C253.347,40.289,253.626,41.802,253.414,43.824z"/>
	<path fill="#1E5171" d="M282.918,38.905c-0.55-1.546-1.567-2.806-3.049-3.781c-1.482-0.975-3.379-1.462-5.69-1.462
		c-1.776,0-3.445,0.285-5.005,0.855c-1.56,0.571-2.931,1.391-4.117,2.459c-1.185,1.071-2.169,2.352-2.953,3.848
		c-0.783,1.495-1.329,3.116-1.638,4.864c-0.654,3.713-0.119,6.652,1.608,8.819c1.727,2.167,4.49,3.25,8.29,3.25
		c1.66,0,3.169-0.217,4.524-0.65c1.354-0.433,2.513-0.978,3.473-1.636c0.961-0.657,1.714-1.343,2.26-2.059
		c0.544-0.716,0.863-1.339,0.958-1.874c0.106-0.606,0.001-1.076-0.314-1.409c-0.318-0.332-0.778-0.498-1.386-0.498
		c-0.564,0-1.019,0.129-1.37,0.389c-0.857,0.694-1.555,1.244-2.088,1.647c-0.533,0.405-1.106,0.784-1.718,1.137
		c-0.61,0.355-1.224,0.615-1.838,0.78c-0.614,0.167-1.275,0.25-1.983,0.25c-1.056,0-1.973-0.26-2.756-0.78
		c-0.781-0.52-1.346-1.292-1.692-2.319c-0.347-1.025-0.408-2.21-0.186-3.553h11.57c1.546,0,2.784-0.22,3.714-0.662
		c0.93-0.44,1.526-1.405,1.789-2.893C283.604,42.025,283.469,40.451,282.918,38.905z M277.565,43.824h-10.727
		c0.554-1.994,1.395-3.5,2.521-4.519c1.127-1.019,2.425-1.526,3.898-1.526c1.546,0,2.702,0.501,3.473,1.505
		C277.5,40.289,277.776,41.802,277.565,43.824z"/>
</g>
</svg>
