<?xml version="1.0" encoding="utf-8"?>
<!-- Generator: Adobe Illustrator 23.0.3, SVG Export Plug-In . SVG Version: 6.00 Build 0)  -->
<svg version="1.1" id="圖層_1" xmlns="http://www.w3.org/2000/svg" xmlns:xlink="http://www.w3.org/1999/xlink" x="0px" y="0px"
	 viewBox="0 0 68.2 70.9" style="enable-background:new 0 0 68.2 70.9;" xml:space="preserve">
<style type="text/css">
	.st0{fill:#ff7e00;}
</style>
<g>
	<path class="st0" d="M67.1,29.3c-1.1-1.3-2.5-1.8-4.3-1.5c-1.6,0.4-2.6,1.4-3.1,3L53.5,49c-0.5,1.2-1.3,2.3-2.2,3.3
		c-0.3,0.2-0.6,0.5-0.7,0.6c-1.5,1.2-3.5,1.3-6.3,0.3c-1.1-0.4-2-0.8-2.7-1.3c-1.1-0.7-1.7-1.9-1.9-3.7c0-0.2,0-0.5-0.1-0.7
		c6.6-2,10.9-8.5,10.2-15.3c-0.1-0.9-0.9-1.4-1.8-1.3l-25.6,5.3c-0.8,0.2-1.4,1-1.1,1.9c1.4,4.4,4.9,7.8,9.1,9.3
		c0,0.2-0.1,0.4-0.1,0.7c-0.2,1.7-0.8,3-1.8,3.7c-0.8,0.5-1.7,1-2.7,1.4c-2.7,1-4.8,1-6.3-0.1c-0.2-0.2-0.4-0.4-0.8-0.6
		c-1-1-1.7-2-2.3-3.2l-6.8-18c-0.6-1.6-1.7-2.5-3.2-2.9c-1.8-0.3-3.2,0.2-4.2,1.6c-1,1.3-1.3,2.8-0.7,4.4l6.8,18
		c3.2,7,8.2,10.4,14.8,10.3c1.9,0.1,3.9-0.2,5.9-1c2.4-0.9,4.4-2.2,6-3.8c1.7,1.7,3.8,3.1,6.4,4c2,0.7,4,0.9,5.9,0.8
		c6.6-0.1,11.4-3.7,14.5-10.8L68,33.6C68.5,32,68.2,30.6,67.1,29.3z"/>
	<path class="st0" d="M41.5,28.8c0.4,0,0.9-0.1,1.3-0.2c3.7-0.9,5.9-5.2,4.8-9.6c-0.5-2.1-1.6-3.9-3.2-5.1c-1.6-1.3-3.6-1.7-5.4-1.3
		c-1.8,0.4-3.3,1.7-4.3,3.5c-0.9,1.8-1.1,3.9-0.6,6.1C35.1,26.1,38.2,28.8,41.5,28.8z M36.5,17c0.7-1.3,1.7-2.2,3-2.5
		c0.3-0.1,0.6-0.1,0.9-0.1c1,0,2,0.4,2.9,1.1c0.5,0.4,0.9,0.9,1.3,1.4c-0.9-0.6-2-0.8-3.1-0.6c-2.4,0.6-3.8,3.4-3.1,6.4
		c0.5,2.2,2,3.8,3.7,4.3c-2.6,0.4-5.3-1.8-6.1-5.1C35.7,20.1,35.8,18.4,36.5,17z"/>
	<path class="st0" d="M25.8,34.7c0.4,0,0.9,0,1.3-0.1l0,0c1.7-0.4,3.2-1.6,4-3.4c0.8-1.7,1-3.7,0.6-5.7c-1-4.2-4.6-6.9-8.2-6.1
		c-1.7,0.4-3.2,1.6-4,3.4c-0.8,1.7-1,3.7-0.6,5.7C19.7,32.1,22.7,34.7,25.8,34.7z M21.1,23.6c0.6-1.2,1.6-2.1,2.8-2.4
		c0.3-0.1,0.6-0.1,0.9-0.1c1.4,0,2.9,0.8,3.8,2.2c-0.9-0.5-1.8-0.7-2.8-0.5c-2.3,0.5-3.6,3.2-2.9,6c0.5,2,1.8,3.5,3.4,4
		c-2.4,0.3-4.8-1.7-5.6-4.7C20.3,26.4,20.5,24.9,21.1,23.6z"/>
</g>
</svg>
